<?xml version="1.0" encoding="UTF-8"?>
<svg width="18px" height="18px" viewBox="0 0 18 18" version="1.1" xmlns="http://www.w3.org/2000/svg" xmlns:xlink="http://www.w3.org/1999/xlink">
    <!-- Generator: Sketch 52.6 (67491) - http://www.bohemiancoding.com/sketch -->
    <title>instagram</title>
    <desc>Created with Sketch.</desc>
    <g id="WEB" stroke="none" stroke-width="1" fill="none" fill-rule="evenodd">
        <g id="001-SV-4" transform="translate(-1173.000000, -41.000000)" fill="#FFFFFF">
            <g id="Navigation-1" transform="translate(505.000000, 40.000000)">
                <g id="SocialMedia" transform="translate(628.000000, 1.000000)">
                    <g id="instagram" transform="translate(40.954023, 0.954023)">
                        <path d="M11.0632184,0 L5.02873563,0 C2.25186782,0 0,2.25186782 0,5.02873563 L0,11.0632184 C0,13.8400862 2.25186782,16.091954 5.02873563,16.091954 L11.0632184,16.091954 C13.8400862,16.091954 16.091954,13.8400862 16.091954,11.0632184 L16.091954,5.02873563 C16.091954,2.25186782 13.8400862,0 11.0632184,0 Z M14.5833333,11.0632184 C14.5833333,13.0043103 13.0043103,14.5833333 11.0632184,14.5833333 L5.02873563,14.5833333 C3.08764368,14.5833333 1.50862069,13.0043103 1.50862069,11.0632184 L1.50862069,5.02873563 C1.50862069,3.08764368 3.08764368,1.50862069 5.02873563,1.50862069 L11.0632184,1.50862069 C13.0043103,1.50862069 14.5833333,3.08764368 14.5833333,5.02873563 L14.5833333,11.0632184 Z" id="Shape" fill-rule="nonzero"></path>
                        <path d="M8.04597701,4.02298851 C5.82428161,4.02298851 4.02298851,5.82428161 4.02298851,8.04597701 C4.02298851,10.2676724 5.82428161,12.0689655 8.04597701,12.0689655 C10.2676724,12.0689655 12.0689655,10.2676724 12.0689655,8.04597701 C12.0689655,5.82428161 10.2676724,4.02298851 8.04597701,4.02298851 Z M8.04597701,10.5603448 C6.66005747,10.5603448 5.5316092,9.43189655 5.5316092,8.04597701 C5.5316092,6.65905172 6.66005747,5.5316092 8.04597701,5.5316092 C9.43189655,5.5316092 10.5603448,6.65905172 10.5603448,8.04597701 C10.5603448,9.43189655 9.43189655,10.5603448 8.04597701,10.5603448 Z" id="Shape" fill-rule="nonzero"></path>
                        <circle id="Oval" cx="12.3706897" cy="3.72126437" r="1"></circle>
                    </g>
                </g>
            </g>
        </g>
    </g>
</svg>