<?xml version="1.0" encoding="UTF-8"?>
<svg width="22px" height="12px" viewBox="0 0 22 12" version="1.1" xmlns="http://www.w3.org/2000/svg" xmlns:xlink="http://www.w3.org/1999/xlink">
    <!-- Generator: Sketch 52.6 (67491) - http://www.bohemiancoding.com/sketch -->
    <title>soundcloud</title>
    <desc>Created with Sketch.</desc>
    <g id="WEB" stroke="none" stroke-width="1" fill="none" fill-rule="evenodd">
        <g id="001-SV-4" transform="translate(-1270.000000, -44.000000)" fill="#FFFFFF">
            <g id="Navigation-1" transform="translate(505.000000, 40.000000)">
                <g id="SocialMedia" transform="translate(628.000000, 1.000000)">
                    <g id="soundcloud" transform="translate(137.655172, 3.252874)">
                        <path d="M17.4568966,5.10855683 C19.2400862,5.10855683 20.6896552,6.54150702 20.6896552,8.30140485 C20.6896552,10.0625798 19.2400862,11.4942529 17.4568966,11.4942529 L10.9913793,11.4942529 C10.6344828,11.4942529 10.3448276,11.2081737 10.3448276,10.8556833 L10.3448276,0.638569604 C10.3448276,0.286079183 10.6344828,-2.09610107e-13 10.9913793,-2.09610107e-13 C14.0056034,-2.09610107e-13 16.4922414,2.27586207 16.7831897,5.17879949 C17.000431,5.13282248 17.2267241,5.10855683 17.4568966,5.10855683 Z M8.33333333,1.34099617 C8.70344828,1.34099617 9.00383142,1.62528736 9.00383142,1.97557471 L9.00383142,10.8596743 C9.00383142,11.2099617 8.70344828,11.4942529 8.33333333,11.4942529 C7.96321839,11.4942529 7.66283525,11.2099617 7.66283525,10.8596743 L7.66283525,1.97557471 C7.66283525,1.62528736 7.96321839,1.34099617 8.33333333,1.34099617 Z M5.84291188,3.83141762 C6.21302682,3.83141762 6.51340996,4.11749681 6.51340996,4.46998723 L6.51340996,10.8556833 C6.51340996,11.2081737 6.21302682,11.4942529 5.84291188,11.4942529 C5.47279693,11.4942529 5.17241379,11.2081737 5.17241379,10.8556833 L5.17241379,4.46998723 C5.17241379,4.11749681 5.47279693,3.83141762 5.84291188,3.83141762 Z M3.16091954,3.83141762 C3.53103448,3.83141762 3.83141762,4.11749681 3.83141762,4.46998723 L3.83141762,10.8556833 C3.83141762,11.2081737 3.53103448,11.4942529 3.16091954,11.4942529 C2.7908046,11.4942529 2.49042146,11.2081737 2.49042146,10.8556833 L2.49042146,4.46998723 C2.49042146,4.11749681 2.7908046,3.83141762 3.16091954,3.83141762 Z M0.670498084,5.74712644 C1.04061303,5.74712644 1.34099617,6.03678161 1.34099617,6.39367816 L1.34099617,10.2729885 C1.34099617,10.6298851 1.04061303,10.9195402 0.670498084,10.9195402 C0.300383142,10.9195402 2.78665979e-13,10.6298851 2.78665979e-13,10.2729885 L2.78665979e-13,6.39367816 C2.78665979e-13,6.03678161 0.300383142,5.74712644 0.670498084,5.74712644 Z" id="Combined-Shape"></path>
                    </g>
                </g>
            </g>
        </g>
    </g>
</svg>