<?xml version="1.0" encoding="UTF-8"?>
<svg width="14px" height="18px" viewBox="0 0 14 18" version="1.1" xmlns="http://www.w3.org/2000/svg" xmlns:xlink="http://www.w3.org/1999/xlink">
    <!-- Generator: Sketch 52.6 (67491) - http://www.bohemiancoding.com/sketch -->
    <title>youtube-logo</title>
    <desc>Created with Sketch.</desc>
    <g id="WEB" stroke="none" stroke-width="1" fill="none" fill-rule="evenodd">
        <g id="001-SV-4" transform="translate(-1223.000000, -41.000000)" fill="#FFFFFF" fill-rule="nonzero">
            <g id="Navigation-1" transform="translate(505.000000, 40.000000)">
                <g id="SocialMedia" transform="translate(628.000000, 1.000000)">
                    <g id="youtube-logo" transform="translate(90.333333, 0.954023)">
                        <path d="M11.2780444,11.770728 L10.4,11.770728 L10.4040889,11.2577522 C10.4040889,11.0297829 10.5902222,10.843295 10.8176,10.843295 L10.8736,10.843295 C11.1015111,10.843295 11.2881778,11.0297829 11.2881778,11.2577522 L11.2780444,11.770728 Z M7.98453333,10.6714687 C7.76177778,10.6714687 7.57955556,10.8220179 7.57955556,11.0063602 L7.57955556,13.5011494 C7.57955556,13.6851341 7.76177778,13.8353257 7.98453333,13.8353257 C8.20817778,13.8353257 8.39057778,13.6851341 8.39057778,13.5011494 L8.39057778,11.0063602 C8.39057778,10.8218391 8.20817778,10.6714687 7.98453333,10.6714687 Z M13.3333333,9.2759387 L13.3333333,14.0219923 C13.3333333,15.1604087 12.3518222,16.091954 11.152,16.091954 L2.18151111,16.091954 C0.981333333,16.091954 0,15.1604087 0,14.0219923 L0,9.2759387 C0,8.13752235 0.981333333,7.20579821 2.18151111,7.20579821 L11.152,7.20579821 C12.3518222,7.20579821 13.3333333,8.13752235 13.3333333,9.2759387 Z M2.77991111,14.5372925 L2.7792,9.53787995 L3.8912,9.53823755 L3.8912,8.79747126 L0.926933333,8.79300128 L0.926933333,9.5212516 L1.85226667,9.52393359 L1.85226667,14.5372925 L2.77991111,14.5372925 Z M6.11324444,10.2825798 L5.18613333,10.2825798 L5.18613333,12.952235 C5.18613333,13.3384419 5.20942222,13.5315453 5.18471111,13.5996679 C5.10933333,13.8067178 4.77048889,14.0266411 4.6384,13.6220179 C4.616,13.5512133 4.63573333,13.3375479 4.63537778,12.9706513 L4.63164444,10.2825798 L3.70968889,10.2825798 L3.71253333,12.9284547 C3.71324444,13.3339719 3.70346667,13.6363218 3.71573333,13.7739974 C3.73831111,14.0166284 3.73031111,14.2994891 3.95413333,14.4611239 C4.3712,14.763295 5.17066667,14.4160664 5.37066667,13.9840868 L5.36888889,14.5353257 L6.11342222,14.5362197 L6.11324444,10.2825798 Z M9.07911111,13.3396935 L9.07715556,11.1177522 C9.07644444,10.2709579 8.44657778,9.7638825 7.59164444,10.4490421 L7.59537778,8.79711367 L6.66933333,8.79854406 L6.66488889,14.5004598 L7.42648889,14.4893742 L7.49582222,14.1342784 C8.4688,15.0320307 9.08053333,14.4167816 9.07911111,13.3396935 Z M11.9806222,13.0452107 L11.2855111,13.0489655 C11.2851556,13.0766794 11.2840889,13.1086845 11.2837333,13.1435504 L11.2837333,13.5336909 C11.2837333,13.7425287 11.1121778,13.912567 10.9038222,13.912567 L10.7676444,13.912567 C10.5589333,13.912567 10.3873778,13.7425287 10.3873778,13.5336909 L10.3873778,13.4904215 L10.3873778,13.0613027 L10.3873778,12.5075607 L11.9792,12.5075607 L11.9792,11.9050064 C11.9792,11.4646232 11.968,11.0244189 11.9317333,10.7726692 C11.8177778,9.9762963 10.7063111,9.84988506 10.1448889,10.2575479 C9.96871111,10.3848531 9.83413333,10.555249 9.75591111,10.7841124 C9.67697778,11.0131545 9.63768889,11.3260536 9.63768889,11.7235249 L9.63768889,13.0484291 C9.63804444,15.2508812 12.2979556,14.9395913 11.9806222,13.0452107 Z M8.41475556,5.85246488 C8.46257778,5.96939974 8.53688889,6.06416347 8.63768889,6.13568327 C8.73724444,6.20613027 8.86453333,6.24153257 9.01706667,6.24153257 C9.15075556,6.24153257 9.26915556,6.20523627 9.37226667,6.13031928 C9.47502222,6.0557599 9.5616,5.94436782 9.63235556,5.79578544 L9.61475556,6.1616092 L10.6481778,6.1616092 L10.6481778,1.74150702 L9.83466667,1.74150702 L9.83466667,5.1816092 C9.83466667,5.36791826 9.68213333,5.52043423 9.49564444,5.52043423 C9.31022222,5.52043423 9.15715556,5.36791826 9.15715556,5.1816092 L9.15715556,1.74150702 L8.30808889,1.74150702 L8.30808889,4.72280971 C8.30808889,5.10257982 8.31502222,5.3557599 8.32622222,5.48413793 C8.33777778,5.61162197 8.36693333,5.73392082 8.41475556,5.85246488 Z M5.28302222,3.35606641 C5.28302222,2.93177522 5.31822222,2.60045977 5.38808889,2.36158365 C5.45848889,2.12360153 5.58488889,1.93228608 5.768,1.78799489 C5.95057778,1.64298851 6.18435556,1.57039591 6.46862222,1.57039591 C6.70773333,1.57039591 6.91253333,1.61759898 7.08355556,1.71003831 C7.25546667,1.80301405 7.38808889,1.9237037 7.48,2.07264368 C7.57368889,2.22212005 7.63733333,2.37570881 7.67128889,2.53287356 C7.70595556,2.69218391 7.72302222,2.93249042 7.72302222,3.2566539 L7.72302222,4.3745083 C7.72302222,4.78449553 7.70666667,5.08613027 7.67484444,5.27762452 C7.64337778,5.46965517 7.57582222,5.64773946 7.47111111,5.81473819 C7.368,5.97994891 7.23484444,6.10349936 7.07342222,6.18234994 C6.91022222,6.26191571 6.72355556,6.300894 6.51271111,6.300894 C6.27715556,6.300894 6.07875556,6.26817369 5.9152,6.19987229 C5.75111111,6.13192848 5.62435556,6.02947637 5.53404444,5.89340996 C5.44284444,5.75716475 5.37866667,5.59123883 5.33991111,5.39777778 C5.30097778,5.20449553 5.28248889,4.91376756 5.28248889,4.52630907 L5.28302222,3.35606641 Z M6.09244444,5.11187739 C6.09244444,5.36219668 6.27768889,5.5665645 6.50328889,5.5665645 C6.72906667,5.5665645 6.9136,5.36219668 6.9136,5.11187739 L6.9136,2.75887612 C6.9136,2.50891443 6.72906667,2.30454662 6.50328889,2.30454662 C6.27768889,2.30454662 6.09244444,2.50891443 6.09244444,2.75887612 L6.09244444,5.11187739 Z M3.23235556,6.3 L4.20728889,6.3 L4.20835556,2.90996169 L5.36035556,0.00590038314 L4.29404444,0.00590038314 L3.6816,2.16293742 L3.06044444,0 L2.00515556,0 L3.23075556,2.91157088 L3.23235556,6.3 Z" id="YouTube"></path>
                    </g>
                </g>
            </g>
        </g>
    </g>
</svg>